<svg version="1" xmlns="http://www.w3.org/2000/svg" width="613.333" height="461.333" viewBox="0 0 460 346"><g fill="#df3e35"><path d="M205.8 67.8C193.4 105 167.4 182.5 148.1 240 128.8 297.5 113 344.8 113 345.2c0 .5 12.7.8 28.3.8h28.2l9.2-29.3 9.1-29.2 42.5-.3 42.5-.2 1.1 3.2c.5 1.8 4 13 7.6 24.8 3.6 11.8 7.3 23.6 8.1 26.2l1.6 4.8h28.5c26.6 0 28.5-.1 27.8-1.7-.3-1-4-11.7-8.1-23.8-9.7-28.3-41.6-121.6-67.4-197-11.1-32.5-25.1-73.4-31.1-90.9C234.9 15 230 .5 230 .3c0-.1-.3-.3-.7-.3-.5 0-11 30.5-23.5 67.8zM241 186c5.6 17.9 12.1 38.7 14.5 46.2l4.2 13.8h-29.4c-27.6 0-29.4-.1-28.9-1.8.3-.9 6.7-21.1 14.1-44.7 7.5-23.7 13.8-43.8 14.1-44.8.3-1 .7-1.7.9-1.5.2.2 4.9 14.9 10.5 32.8zM64.6 251.6c-30.8 3-56.3 5.7-56.6 6.1-1 1.3-7.4 22.2-6.9 22.6.4.4 106 6.8 111 6.7 2.4 0 2.9-1 9.2-19.8 3.7-10.8 6.7-20 6.7-20.5 0-1.1-4.1-.8-63.4 4.9zM339 266.1c3.8 11.1 7.1 20.4 7.4 20.7.5.5 112.7-5.8 113.4-6.4.4-.3-6.9-23.4-7.4-23.4-.2 0-26.5-2.5-58.4-5.5s-58.9-5.5-60-5.5c-1.8 0-1.4 1.7 5 20.1z"/></g></svg>