<svg version="1" xmlns="http://www.w3.org/2000/svg" width="1365.333" height="1365.333" viewBox="0 0 1024 1024"><path d="M482 56.6c-2.5.2-10.1.8-17 1.4-123.6 10.5-238.9 72.3-317.2 170-54.6 68.1-87.5 149.4-97.5 241-2.5 23.3-2.5 78.7 0 102C64 696.3 121.4 803.7 216.1 881c70.6 57.6 153.5 91.3 248.9 101.2 16.6 1.7 77.4 1.7 94 0 75.9-7.8 141.4-29.8 202.5-68C836.6 867.3 897.9 797.6 934 718c21.2-46.7 33.8-93.4 39.7-147 2.5-23.3 2.5-78.7 0-102-13.7-125.3-71.1-232.7-165.8-310-69.4-56.7-150.6-90.2-243.6-100.6-13-1.4-71.3-2.7-82.3-1.8zm-39.3 211.6c1.6 1.5 2.3 3.3 2.3 5.7 0 3.4-5.4 9-117 120.6l-117 117 118 118c108.8 108.8 118 118.3 118 121.3 0 4.4-3.8 8.2-8.2 8.2-3 0-12.7-9.4-125-121.8C192.8 516.3 192 515.5 192 511.5s.8-4.8 120.8-124.7C426.2 273.3 433.7 266 436.9 266c2.2 0 4.3.8 5.8 2.2zm268.5 118.6C831.2 506.7 832 507.5 832 511.5s-.8 4.8-121.8 125.7C597.9 749.6 588.2 759 585.2 759c-4.4 0-8.2-3.8-8.2-8.2 0-3 9.2-12.5 118-121.3l118-118-117-117C586.2 284.7 579 277.3 579 274.1c0-4.8 3.3-8.1 7.9-8.1 3.4 0 9.1 5.5 124.3 120.8z"/></svg>