<svg version="1" xmlns="http://www.w3.org/2000/svg" width="600" height="640" viewBox="0 0 450 480"><path d="M224.3 4.9c-1.7.3-48.4 26.7-103.8 58.6C38 111.1 19.8 121.9 19.2 124c-.9 3.3-.9 237.7 0 241 .6 2.1 18.2 12.6 98.3 58.8l97.6 56.2h26.4l96.5-55.6c53.1-30.5 97.3-56.5 98.2-57.6 1.7-1.9 1.8-9.2 1.8-122.3s-.1-120.4-1.7-122.3c-1.4-1.5-188-109.8-199.8-115.9-2.9-1.5-8.5-2.1-12.2-1.4zM245 112.4c-2.1 5-2.8 15-1 16.1.6.3 1 1.5 1 2.6 0 3.9 5.6 13.4 11 18.9 5.9 5.9 13.7 10.4 21 12 9.6 2.1 25.5.5 26.7-2.6.3-.8 1.1-1.4 1.8-1.4s2.5-1.4 3.8-3c2.8-3.3 4.5-2.4 2.6 1.2-4 7.7-15 16.8-20.3 16.8-1.4 0-2.8.4-3.1 1-.3.5-4.6 1-9.5 1s-9.2-.5-9.5-1c-.3-.6-1.6-1-2.9-1-2 0-12.5-4.6-13.6-6-.3-.3-2.2-1.9-4.2-3.4-2.1-1.6-3.8-3.5-3.8-4.2 0-.8-.4-1.4-.8-1.4-1.4 0-5.9-7.6-7.7-13.1-2.5-7.3-1.7-22.9 1.3-27.9 1.2-1.9 2.5-4.2 2.9-5 1.2-2.6 4.8-5.8 5.6-5 .4.3-.1 2.8-1.3 5.4zm-37.6 9.5c-1 3.1-2.2 6.2-2.7 6.8-1.4 1.9-1.1 22.7.2 23.1.6.2 1.1 1.4 1.1 2.8 0 3.3 2.7 9.7 7.4 17.8 7 11.7 23.9 25.6 35 28.8 2.3.6 4.6 1.5 5.3 2 .6.5 5.2 1.4 10.3 2 19.8 2.4 35.8-2.7 48.3-15.5 2.5-2.6 4.8-4.3 5.2-3.8.3.6-.6 3.4-2.1 6.3-3.8 7.5-8.5 13.4-14.3 17.8-1.8 1.4-4.5 3.4-5.9 4.6-1.5 1.1-4.9 2.9-7.7 3.9-2.7.9-6.1 2.2-7.4 2.9-3.2 1.5-36.3 1.5-38.2 0-.8-.6-2.7-1.4-4.4-1.8-3.4-.8-11.4-4.4-13.2-6-3.4-3-4.3-3.6-5.1-3.6-1.5 0-18.2-17.9-18.2-19.5 0-.7-.4-1.5-.9-1.7-1.3-.5-5.9-10.1-7.1-15-1.9-7.4-2.2-10.1-2.2-17.3 0-13.3 2.3-20.4 9.4-30.2 2.1-2.9 3.8-5.5 3.8-5.8 0-.3 1-1.9 2.2-3.6 3-4 3.5-2 1.2 5zM164 132.3c0 .8-.3 1.7-.7 2.1-1.1 1.1-3.2 7.7-3.9 12.4-.3 2.3-1 4.5-1.5 4.8-1.2.7-1.1 22.1.1 22.9.6.3 1 1.8 1 3.2 0 6.8 7.9 27.3 11.7 30.5.7.6 1.3 1.6 1.3 2.3 0 2.4 20 22.3 27.2 27 9.3 6.2 16.3 9.9 21.8 11.5 2.5.8 5 1.7 5.5 2.1.6.4 3.5 1.1 6.5 1.4 3 .4 6.4 1.1 7.5 1.6 4.5 2.2 32.4 0 39-3 1.1-.5 4.1-1.6 6.6-2.5 4.6-1.7 14.1-7.3 14.7-8.8.2-.5.8-.8 1.3-.8 1.2 0 6.9-5.1 6.9-6.2 0-1.3 2.6-3.8 3.9-3.8 2.5 0 .3 4.7-7.3 15.5-5.7 8.1-12.5 15.5-14.3 15.5-.6 0-1.8.9-2.5 1.9-1.9 2.7-16 10.2-23.3 12.4-9.5 2.9-11 3.1-29 3-17.3 0-22.9-.4-24.1-1.6-.4-.4-1.7-.7-2.9-.7-1.9 0-5.4-1.4-15.5-6.4-8.9-4.3-15.7-9.3-24.7-17.9-7.7-7.3-18.3-21.1-18.3-23.6 0-.5-.4-1.1-.8-1.3-1.7-.6-8.2-19-9.2-25.6-2.5-17.6-.4-37.3 5.1-46.2.5-.8 1.5-2.6 2.1-4 .7-1.4 1.7-3.1 2.3-3.7.5-.7 3.5-4.4 6.5-8.2 5.5-7 7-8.2 7-5.8zm4.4 145.6c5.2 2.3 11.2 8.8 12.5 13.8 2 7.2 1.3 13.8-2.8 25.8l-4 11.5h3.5c4 0 4.1.7 1.8 8.6l-1.5 5.4h-21.6c-24.4 0-27.9-.6-33.3-6-4.2-4.2-6-9.5-6-17.6.1-17.1 9.5-35.2 21.3-40.7 8.4-4 22.1-4.4 30.1-.8zm221 4c.3.4-7.5 11.5-17.4 24.6-15.7 20.9-18.1 24.6-19.6 30.1l-1.7 6.4H343c-4.2 0-7.9-.2-8.2-.5-.3-.3.1-3.3 1-6.6 1.5-6 1.4-6.2-1.7-16.7-1.7-5.9-3.1-11.3-3.1-12 0-1 2-1.2 8.2-1l8.1.3 1.1 3.8 1.1 3.8 10-14.8c5.5-8.1 10.8-15.6 11.8-16.5 1.3-1.4 3.4-1.8 9.6-1.8 4.4 0 8.2.4 8.5.9zm-106.2 9.2c2.1 1.1 4.5 3 5.3 4.3 2.3 3.5 2.9 12.1 1.3 19.6l-1.4 6.5-17.2.3-17.2.2v2.4c0 4.3 2.3 5.1 17.4 5.6 8.6.3 14 .9 13.9 1.5-.1.5-.7 3.6-1.3 6.9l-1.1 5.8-16.2-.4c-18.1-.4-21.9-1.5-26-7.2-4.9-7-1.4-28.8 6.2-38.5 7.2-9.1 25.3-12.5 36.3-7zm-167.7-.9c.3.7-.1 3.8-.8 6.8l-1.2 5.5-7.8.3c-6.8.3-7.7.1-7.7-1.5s1.4-7.6 2.5-11.1c.3-.8 2.7-1.2 7.5-1.2 4.7 0 7.2.4 7.5 1.2zm91.5 1.2c0 1.4-1.4 9.4-3 17.8-2.3 11.3-2.8 15.9-2.1 17.5 1.1 2.4 5.6 3.7 11.1 3.1l3.5-.3 3.8-18c5.2-24.3 4.2-22.7 12.4-22.3 5.3.2 6.8.6 6.7 1.8-.2 1.4-7 34.3-8 38.5-.3 1.1-1 4.6-1.6 7.7l-1.2 5.8h-15.9c-18.7 0-21.6-.9-24.9-7.4-1.8-3.5-2-5.1-1.4-12.1.7-8 5.4-30.9 6.9-33.3.5-.7 3.2-1.2 7.3-1.2 6.1 0 6.4.1 6.4 2.4zm134.6.1c2.8 2.1 5.9 10.1 4.3 11.1-.5.3-7.9.8-16.4 1.1-14.7.6-15.6.7-16 2.7-.7 2.7-7.5 35.9-7.5 36.3 0 .2-3.4.3-7.5.3s-7.5-.4-7.5-.9c0-1.9 10.8-51 11.5-52.1.5-.8 6.1-1 18.5-.8 16.1.3 18.1.5 20.6 2.3zm-229.9 17.7c-.9 6.5-7.8 37.4-9.3 42.1-2.1 6.3-6.6 11.4-11.2 12.7-2 .5-6.7 1-10.4 1-6.4 0-6.8-.1-6.8-2.3 0-4.6 2.7-11.2 4.6-11.5 5.7-.9 6.5-1.4 8.4-5.5 1.1-2.3 3.6-11.6 5.5-20.7 2-9.1 3.8-17.1 4-17.8.3-.8 2.9-1.2 8.1-1.2h7.6l-.5 3.2z"/><path d="M146.4 291c-4.1 1.6-9.1 8.8-10.8 15.5-2.9 11.5-1.7 18.3 3.5 21.1 3.3 1.7 18.4 2 19.4.3 1.6-2.5 6.5-22.8 6.5-26.7 0-5.4-1.2-7.7-5-9.7-3.1-1.6-10.2-1.9-13.6-.5z"/></svg>