<?xml version="1.0" standalone="no"?>
<!DOCTYPE svg PUBLIC "-//W3C//DTD SVG 20010904//EN"
 "http://www.w3.org/TR/2001/REC-SVG-20010904/DTD/svg10.dtd">
<svg version="1.0" xmlns="http://www.w3.org/2000/svg"
 width="200" height="200" viewBox="0 0 460.000000 346.000000"
 preserveAspectRatio="xMidYMid meet">
<metadata>
Created by potrace 1.15, written by Peter Selinger 2001-2017
</metadata>
<g transform="translate(0.000000,346.000000) scale(0.100000,-0.100000)"
fill="#df3e35" stroke="none">
<path d="M2058 2782 c-124 -372 -384 -1147 -577 -1722 -193 -575 -351 -1048
-351 -1052 0 -5 127 -8 283 -8 l282 0 92 293 91 292 425 3 425 2 11 -32 c5
-18 40 -130 76 -248 36 -118 73 -236 81 -262 l16 -48 285 0 c266 0 285 1 278
17 -3 10 -40 117 -81 238 -97 283 -416 1216 -674 1970 -111 325 -251 734 -311
909 -60 176 -109 321 -109 323 0 1 -3 3 -7 3 -5 0 -110 -305 -235 -678z m352
-1182 c56 -179 121 -387 145 -462 l42 -138 -294 0 c-276 0 -294 1 -289 18 3 9
67 211 141 447 75 237 138 438 141 448 3 10 7 17 9 15 2 -2 49 -149 105 -328z"/>
<path d="M646 944 c-308 -30 -563 -57 -566 -61 -10 -13 -74 -222 -69 -226 4
-4 1060 -68 1110 -67 24 0 29 10 92 198 37 108 67 200 67 205 0 11 -41 8 -634
-49z"/>
<path d="M3390 799 c38 -111 71 -204 74 -207 5 -5 1127 58 1134 64 4 3 -69
234 -74 234 -2 0 -265 25 -584 55 -319 30 -589 55 -600 55 -18 0 -14 -17 50
-201z"/>
</g>
</svg>
