<?xml version="1.0" encoding="utf-8"?>
<svg version="1.0" width="200" height="200" viewBox="0 0 200 200" preserveAspectRatio="xMidYMid meet" xmlns="http://www.w3.org/2000/svg">
  <g transform="matrix(0.017699, 0, 0, -0.017699, 8.164386, 186.039658)" fill="#000000" stroke="none">
    <path d="M4820 9674 c-25 -2 -101 -8 -170 -14 -1236 -105 -2389 -723 -3172 -1700 -546 -681 -875 -1494 -975 -2410 -25 -233 -25 -787 0 -1020 137 -1253 711 -2327 1658 -3100 706 -576 1535 -913 2489 -1012 166 -17 774 -17 940 0 759 78 1414 298 2025 680 751 469 1364 1166 1725 1962 212 467 338 934 397 1470 25 233 25 787 0 1020 -137 1253 -711 2327 -1658 3100 -694 567 -1506 902 -2436 1006 -130 14 -713 27 -823 18z m-393 -2116 c16 -15 23 -33 23 -57 0 -34 -54 -90 -1170 -1206 l-1170 -1170 1180 -1180 c1088 -1088 1180 -1183 1180 -1213 0 -44 -38 -82 -82 -82 -30 0 -127 94 -1250 1218 -1210 1209 -1218 1217 -1218 1257 0 40 8 48 1208 1247 1134 1135 1209 1208 1241 1208 22 0 43 -8 58 -22z m2685 -1186 c1200 -1199 1208 -1207 1208 -1247 0 -40 -8 -48 -1218 -1257 -1123 -1124 -1220 -1218 -1250 -1218 -44 0 -82 38 -82 82 0 30 92 125 1180 1213 l1180 1180 -1170 1170 c-1098 1098 -1170 1172 -1170 1204 0 48 33 81 79 81 34 0 91 -55 1243 -1208z"/>
  </g>
</svg>