<?xml version="1.0" encoding="utf-8"?>
<svg width="200" height="200" viewBox="0 0 200 200" preserveAspectRatio="xMinYMin meet" xmlns="http://www.w3.org/2000/svg">
  <path d="M 50.655 115.908 C 51.782 115.908 52.296 116.455 52.296 117.549 L 52.296 172.739 C 52.296 174.766 51.911 176.729 51.106 178.531 C 50.301 180.333 49.271 181.91 47.92 183.262 C 46.569 184.613 44.991 185.675 43.19 186.448 C 41.36 187.236 39.389 187.641 37.397 187.638 L 32.892 187.638 C 30.864 187.638 28.902 187.253 27.099 186.448 C 25.297 185.675 23.72 184.613 22.369 183.262 C 21.017 181.91 19.955 180.333 19.183 178.531 C 18.377 176.729 17.992 174.798 17.992 172.739 L 17.992 160.092 C 17.992 158.966 18.507 158.29 19.536 157.968 L 30.285 155.136 C 31.315 154.814 31.829 155.2 31.829 156.327 L 31.829 172.159 C 31.829 172.964 32.087 173.607 32.667 174.154 C 33.213 174.701 33.889 174.991 34.661 174.991 L 35.627 174.991 C 36.399 174.991 37.075 174.734 37.622 174.155 C 38.169 173.608 38.459 172.932 38.459 172.16 L 38.459 117.581 C 38.459 116.455 39.006 115.94 40.099 115.94 C 40.132 115.908 50.655 115.908 50.655 115.908 Z M 96.609 185.16 C 96.77 186.287 96.287 186.802 95.193 186.802 L 84.445 186.802 C 83.415 186.802 82.835 186.255 82.675 185.161 L 81.709 173.607 L 74.372 173.607 L 73.407 185.161 C 73.246 186.287 72.634 186.802 71.637 186.802 L 60.889 186.802 C 59.762 186.802 59.311 186.255 59.472 185.161 L 68.355 117.582 C 68.515 116.455 69.127 115.94 70.253 115.94 L 85.861 115.94 C 86.987 115.94 87.598 116.487 87.759 117.581 L 96.609 185.16 Z M 80.776 160.349 L 78.556 134.219 L 77.59 134.219 L 75.37 160.349 L 80.776 160.349 Z M 123.769 115.908 C 125.796 115.908 127.727 116.294 129.561 117.099 C 131.363 117.903 132.94 118.933 134.292 120.284 C 135.643 121.636 136.705 123.213 137.478 125.015 C 138.266 126.844 138.672 128.816 138.668 130.807 L 138.668 171.934 C 138.668 173.962 138.282 175.924 137.478 177.727 C 136.673 179.529 135.643 181.106 134.292 182.457 C 132.94 183.809 131.363 184.871 129.561 185.643 C 127.759 186.448 125.829 186.834 123.769 186.834 L 106.069 186.834 C 104.943 186.834 104.428 186.287 104.428 185.193 L 104.428 117.582 C 104.428 116.455 104.975 115.94 106.069 115.94 L 123.769 115.908 Z M 124.863 131.387 C 124.863 130.614 124.605 129.939 124.026 129.392 C 123.479 128.845 122.803 128.555 122.031 128.555 L 118.266 128.555 L 118.266 174.155 L 122.031 174.155 C 122.803 174.155 123.479 173.897 124.026 173.318 C 124.573 172.771 124.863 172.095 124.863 171.323 L 124.863 131.387 Z M 177.092 174.637 L 177.092 185.16 C 177.092 186.287 176.545 186.802 175.452 186.802 L 149.803 186.802 C 148.677 186.802 148.162 186.255 148.162 185.161 L 148.162 117.581 C 148.162 116.454 148.709 115.94 149.803 115.94 L 175.419 115.94 C 176.545 115.94 177.06 116.487 177.06 117.58 L 177.06 128.071 C 177.06 129.198 176.513 129.713 175.419 129.713 L 161.936 129.713 L 161.936 143.196 L 173.617 143.196 C 174.743 143.196 175.258 143.743 175.258 144.838 L 175.258 155.361 C 175.258 156.487 174.711 157.002 173.617 157.002 L 161.936 157.002 L 161.936 172.963 L 175.419 172.963 C 176.545 172.963 177.092 173.51 177.092 174.637 Z" fill="#569A83"/>
  <path d="M 124.913 60.255 C 125.382 60.725 125.425 61.493 124.87 61.877 C 123.504 62.774 121.754 62.645 120.133 62.475 C 117.401 62.176 114.157 62.048 112.749 59.487 C 112.706 59.487 112.706 59.444 112.664 59.402 C 110.871 58.42 113.901 57.737 114.755 57.609 C 116.675 57.353 118.724 57.865 120.602 58.292 C 122.181 58.591 123.675 59.018 124.912 60.255 Z M 149.838 100.972 C 148.557 101.868 149.113 103.405 148.216 104.472 C 147.32 105.496 145.143 105.496 143.991 105.496 C 139.083 105.539 134.302 105.154 129.479 105.539 C 128.242 105.624 127.132 105.795 125.98 106.093 C 125.638 106.179 125.083 106.392 124.699 106.179 C 123.718 105.667 122.821 104.045 121.541 104.557 C 120.474 105.027 119.663 106.563 118.383 105.624 C 116.035 103.874 114.072 105.453 111.597 105.923 C 109.036 106.435 106.603 105.027 104.085 105.709 C 102.207 106.264 100.414 106.819 98.494 106.179 C 96.574 105.496 96.061 104.002 97.726 102.594 C 100.372 100.417 103.658 100.076 106.944 100.332 C 111.938 100.758 116.889 100.374 121.882 100.118 C 122.053 100.118 122.139 100.204 122.139 100.332 C 124.273 101.185 125.638 99.478 126.876 97.984 C 127.047 97.771 127.345 97.899 127.431 98.027 C 129.224 100.673 131.4 97.686 133.662 97.942 C 134.26 97.984 134.814 98.155 135.199 98.71 C 135.369 98.966 135.412 99.265 135.412 99.564 C 135.497 100.929 137.247 100.631 137.205 99.265 C 137.205 99.051 137.46 98.838 137.674 98.923 C 139.467 99.649 141.771 100.588 143.222 98.71 C 144.46 97.131 144.631 94.869 144.759 92.948 C 145.015 87.784 144.673 82.492 144.289 77.37 C 143.991 72.376 143.436 67.298 144.033 62.303 C 144.631 57.353 144.588 52.53 144.503 47.536 C 144.46 44.933 144.332 42.33 144.503 39.726 C 144.588 37.336 145.015 34.775 144.759 32.385 C 144.503 30.251 143.222 28.416 142.966 26.325 C 142.71 24.404 142.966 22.398 143.436 20.52 C 143.692 19.368 144.289 17.959 144.247 16.764 C 144.204 15.74 144.161 14.673 144.204 13.649 C 144.204 13.137 144.119 12.326 144.503 11.899 C 145.101 11.173 145.399 10.106 143.991 9.978 C 140.619 9.551 137.162 7.417 133.961 9.509 C 134.003 10.234 134.046 11.045 133.875 11.771 L 134.345 12.368 C 135.156 12.71 135.967 12.838 136.863 12.88 C 137.888 12.88 138.997 12.624 140.021 12.71 C 140.875 12.795 141.6 13.563 141.302 14.545 C 141.089 15.27 140.448 15.868 140.064 16.465 C 139.381 17.532 139.509 19.069 139.509 20.307 C 139.467 23.422 139.509 26.538 139.595 29.568 C 139.68 32.129 139.936 34.733 140.107 37.293 C 140.15 37.336 140.32 37.379 140.32 37.507 C 140.406 40.409 141.387 43.269 141.43 46.171 C 141.473 46.213 140.661 49.756 140.661 49.756 C 140.619 53.512 140.32 60.469 140.32 60.469 C 140.277 66.87 139.168 73.23 140.277 79.589 C 140.747 82.15 139.765 84.625 139.68 87.187 C 139.595 90.003 139.936 92.777 139.509 95.594 C 139.552 95.765 139.509 95.936 139.296 96.021 C 133.449 97.131 127.516 97.344 121.541 97.003 C 120.047 96.917 118.297 96.789 116.846 97.344 C 116.291 97.6 115.523 97.942 114.84 97.899 C 113.987 97.814 113.56 97.131 112.749 97.002 C 111.725 96.789 110.743 96.576 109.761 96.491 C 107.115 96.149 104.597 95.978 102.122 97.046 C 100.756 97.643 99.305 97.387 97.939 96.832 C 96.317 96.149 95.079 95.338 93.287 96.234 C 92.561 96.576 91.921 96.96 91.11 97.131 C 90.427 97.301 89.83 97.131 89.232 96.875 C 87.867 96.363 86.799 96.192 85.348 96.448 C 85.519 96.661 85.391 97.046 85.092 97.046 C 76.428 96.576 67.721 97.6 59.058 97.728 C 58.631 97.814 58.332 98.283 58.076 98.283 L 57.82 98.283 C 57.606 98.283 57.564 97.557 57.606 97.43 C 56.454 96.149 56.753 91.924 56.795 90.686 C 57.137 82.62 56.112 74.51 55.899 66.486 C 55.814 62.475 55.814 58.42 56.454 54.451 C 57.222 49.969 57.222 45.616 57.137 41.135 C 56.923 32.215 57.82 23.337 57.564 14.417 C 57.564 14.246 57.734 14.204 57.82 14.246 L 57.905 14.204 C 60.295 13.99 62.899 13.35 65.246 13.99 C 65.292 13.993 65.328 14.029 65.331 14.075 L 65.673 14.118 L 68.319 14.118 C 68.404 14.118 68.532 14.161 68.532 14.204 C 73.227 14.246 77.922 13.862 82.617 13.649 C 84.239 13.606 85.946 13.649 87.568 13.137 C 88.378 12.88 89.36 12.453 90.214 12.539 C 92.348 12.71 94.524 13.35 96.616 13.819 C 98.11 14.118 99.134 11.557 100.457 12.453 C 102.463 13.734 104.768 13.265 107.072 13.307 C 108.31 13.35 109.463 13.094 110.7 13.094 C 111.383 13.094 111.938 13.265 112.536 13.392 C 113.133 13.307 113.645 13.35 114.328 13.606 L 125.254 13.265 C 127.431 13.307 129.821 13.478 131.912 12.667 C 132.467 12.453 132.766 12.155 132.937 11.813 C 132.851 11.643 132.766 11.472 132.68 11.259 C 132.51 10.96 132.339 10.575 132.125 10.362 C 129.778 9.594 127.09 9.807 124.614 9.68 C 121.242 9.509 117.956 9.978 114.584 10.234 C 111.469 10.49 108.225 10.704 105.109 10.448 C 103.274 10.277 99.817 9.466 98.238 10.746 C 98.067 10.832 97.939 10.832 97.768 10.746 C 94.78 8.314 90.854 11.984 87.44 10.96 C 85.391 10.362 83.47 9.935 81.294 10.191 C 79.202 10.405 77.154 10.704 75.02 10.704 C 70.367 10.661 65.758 10.96 61.106 10.789 C 60.082 10.746 59.1 10.746 58.161 10.619 C 57.35 10.533 56.283 10.106 55.472 10.448 C 54.192 10.917 53.936 11.344 54.064 11.728 C 54.405 11.984 53.21 13.606 53.21 14.417 L 53.125 16.551 C 53.082 19.709 52.869 22.611 52.143 25.684 C 51.802 27.306 50.991 29.611 51.588 31.233 C 51.93 32.3 52.741 33.026 53.21 33.964 C 54.021 35.714 54.064 37.848 53.978 39.726 L 53.466 58.079 C 53.253 64.182 52.869 70.328 53.125 76.474 C 53.338 82.15 54.234 87.955 53.466 93.588 C 53.21 95.466 50.948 98.795 53.125 100.118 C 54.363 100.844 55.814 101.015 57.222 101.143 C 60.679 101.356 64.136 100.972 67.636 100.588 C 68.917 100.417 70.197 100.161 71.477 100.161 C 72.459 100.118 73.355 100.246 74.294 100.587 C 75.105 100.886 76.343 101.442 77.282 101.442 C 77.324 101.484 78.818 101.399 78.904 100.972 C 80.184 100.417 81.294 99.99 82.915 100.289 C 84.495 100.588 85.903 100.801 87.568 100.503 C 88.421 100.332 89.702 100.246 90.556 100.46 L 90.897 100.716 C 91.238 100.545 90.683 101.143 90.342 101.271 C 88.422 102.039 89.019 104.514 88.806 106.179 C 88.806 106.35 88.592 106.392 88.507 106.392 C 87.738 106.392 86.671 106.392 86.244 105.582 C 85.348 103.917 83.172 102.765 83.172 106.264 C 83.172 106.477 83.001 106.563 82.873 106.563 C 82.702 106.563 82.574 106.477 82.574 106.264 C 82.574 106.051 80.312 104.856 80.056 104.728 C 78.946 104.13 77.666 103.405 76.343 103.874 C 75.532 104.13 74.849 104.6 74.081 104.941 C 72.715 106.606 71.264 108.398 69.258 107.332 C 68.831 107.118 67.167 105.666 66.825 105.965 C 66.356 106.477 65.844 106.99 65.203 107.246 C 63.368 107.971 61.447 107.844 59.484 107.801 C 59.399 107.801 59.185 107.715 59.185 107.545 C 59.1 106.776 58.673 105.24 57.606 106.179 C 57.35 106.392 57.137 106.605 56.881 106.862 C 56.582 107.118 56.198 107.459 55.814 107.63 C 54.533 108.142 50.607 107.459 50.095 106.563 C 49.668 105.88 49.54 105.197 49.369 104.429 C 49.07 102.551 49.284 100.503 49.198 98.582 C 49.028 93.759 48.686 89.021 48.302 84.199 C 48.089 81.766 47.876 79.248 48.089 76.773 C 48.174 75.193 48.259 73.017 49.07 71.566 C 49.753 70.413 49.284 69.474 48.387 68.621 C 48.174 68.364 48.089 67.895 48.089 67.596 C 47.918 65.804 48.259 63.926 48.345 62.133 C 48.43 60.81 48.644 59.487 48.644 58.164 C 48.644 57.14 48.43 56.158 48.345 55.176 C 48.302 54.664 48.259 54.152 48.558 53.682 C 49.156 52.829 49.07 52.36 48.729 51.378 C 48.046 49.5 48.729 47.238 48.814 45.274 C 48.985 42.97 49.07 40.708 48.814 38.36 C 48.558 35.8 48.046 33.324 48.217 30.721 C 48.387 28.373 48.515 26.239 48.644 23.935 C 48.857 19.752 48.857 15.527 48.729 11.344 L 48.729 12.326 C 48.729 12.326 48.387 6.991 50.607 5.71 C 54.021 3.832 58.161 4.131 61.874 3.96 C 66.697 3.747 71.563 4.216 76.385 4.216 C 79.202 4.216 81.977 4.174 84.708 3.533 C 86.612 3.108 88.564 2.935 90.513 3.021 C 92.903 3.192 95.207 3.79 97.555 4.003 C 99.902 4.216 102.207 4.088 104.554 3.96 C 109.633 3.619 114.755 3.747 119.834 3.96 L 127.772 4.302 C 129.01 4.344 130.418 4.643 131.614 4.344 L 133.875 3.576 C 135.54 3.107 136.692 3.533 138.314 3.917 L 144.289 5.326 C 144.972 5.155 145.612 5.113 146.125 5.625 C 147.234 6.649 146.167 7.929 146.978 9.082 C 147.96 10.448 148.856 11.344 149.07 13.094 C 149.283 14.972 149.368 17.02 148.771 18.856 C 148.344 20.094 147.789 21.417 148.302 22.74 C 148.6 23.55 149.155 24.319 149.368 25.172 C 149.795 27.007 149.795 28.843 149.667 30.721 C 149.582 32.855 149.454 35.031 149.197 37.123 C 149.027 38.489 148.472 39.812 148.429 41.135 C 148.387 42.244 148.728 43.183 148.942 44.25 C 149.667 47.75 146.594 49.969 146.039 53.17 C 145.74 54.92 147.704 54.152 148.6 55.176 C 149.155 55.859 148.856 56.969 148.813 57.694 C 148.6 59.572 149.155 61.408 149.07 63.285 C 148.984 65.633 148.258 67.553 148.813 69.901 C 149.112 71.224 149.368 72.547 149.07 73.87 C 148.771 75.193 147.234 78.522 149.283 79.12 C 149.368 79.12 149.454 79.205 149.454 79.333 C 149.454 79.931 149.368 80.357 149.112 80.912 C 148.216 82.961 149.625 82.534 149.881 83.857 C 150.136 85.095 149.411 85.522 149.197 86.674 C 148.899 88.51 149.881 89.918 149.795 91.71 C 149.752 93.375 148.813 94.314 149.112 95.85 C 149.197 95.85 149.326 95.936 149.326 96.064 C 149.496 96.875 149.582 97.814 149.283 98.625 C 148.856 99.777 148.387 100.119 149.71 100.801 C 150.051 100.545 150.051 100.844 149.838 100.972 Z M 127.516 44.336 C 126.705 39.342 126.236 34.135 124.571 29.355 C 123.846 27.349 123.504 25.172 121.157 24.788 C 118.084 24.276 119.108 26.837 119.535 29.27 C 120.133 33.025 120.388 36.867 121.37 40.58 C 122.053 43.14 123.291 46.171 119.876 44.208 C 114.157 40.751 112.194 33.196 109.889 27.562 C 108.865 25.002 105.878 18.898 103.829 17.362 C 102.847 16.636 98.024 15.569 97.085 16.209 C 95.079 17.575 101.268 27.178 102.122 28.886 C 104 32.726 106.005 36.525 108.438 39.982 C 110.188 42.415 112.92 44.677 109.036 46.128 C 105.024 47.665 103.06 45.402 100.329 43.311 C 98.152 41.689 95.378 41.433 92.647 41.135 C 85.135 40.238 78.007 41.092 71.989 46.086 C 69.087 48.518 67.252 51.847 65.716 55.262 C 65.289 56.115 62.813 63.67 63.154 63.712 C 61.618 63.456 62.557 59.871 60.594 61.962 C 58.844 63.798 61.106 69.09 61.874 70.925 C 63.624 75.022 65.459 79.035 66.825 83.303 C 68.191 87.571 68.49 87.485 72.416 87.827 C 77.41 88.296 82.318 86.759 87.226 86.162 C 87.226 86.162 78.519 80.742 95.72 86.674 C 99.561 87.997 103.616 87.656 107.627 87.784 C 110.487 87.101 110.572 82.193 112.066 79.888 C 112.621 79.035 115.395 74.681 116.249 74.34 C 117.486 73.87 119.236 75.15 120.474 75.321 C 127.644 76.431 129.864 70.541 128.711 64.779 C 127.73 59.743 128.284 54.109 129.01 50.226 C 129.309 48.774 127.772 45.659 127.516 44.336 Z M 95.464 105.624 C 94.695 104.898 93.543 104.728 92.775 103.96 C 92.348 103.49 92.22 103.063 92.305 102.551 C 92.305 102.551 92.262 102.551 92.262 102.508 C 91.708 101.484 92.988 100.631 93.884 100.972 C 94.354 101.185 95.037 101.484 95.122 102.039 C 95.165 102.765 94.695 103.277 94.567 103.917 C 95.079 104.216 95.592 104.941 95.848 105.283 C 96.018 105.582 95.677 105.837 95.464 105.624 Z" fill="#C1272D"/>
</svg>