<?xml version="1.0" encoding="utf-8"?>
<svg version="1.0" width="200" height="200" viewBox="0 0 200 200" preserveAspectRatio="xMidYMid meet" xmlns="http://www.w3.org/2000/svg">
  <g transform="matrix(0.037344, 0, 0, -0.037344, 17.493248, 188.970093)" fill="#000000" stroke="none">
    <path d="M2243 4751 c-17 -3 -484 -267 -1038 -586 -825 -476 -1007 -584 -1013 -605 -9 -33 -9 -2377 0 -2410 6 -21 182 -126 983 -588 l976 -562 132 0 132 0 965 556 c531 305 973 565 982 576 17 19 18 92 18 1223 0 1131 -1 1204 -17 1223 -14 15 -1880 1098 -1998 1159 -29 15 -85 21 -122 14z m207 -1075 c-21 -50 -28 -150 -10 -161 6 -3 10 -15 10 -26 0 -39 56 -134 110 -189 59 -59 137 -104 210 -120 96 -21 255 -5 267 26 3 8 11 14 18 14 7 0 25 14 38 30 28 33 45 24 26 -12 -40 -77 -150 -168 -203 -168 -14 0 -28 -4 -31 -10 -3 -5 -46 -10 -95 -10 -49 0 -92 5 -95 10 -3 6 -16 10 -29 10 -20 0 -125 46 -136 60 -3 3 -22 19 -42 34 -21 16 -38 35 -38 42 0 8 -4 14 -8 14 -14 0 -59 76 -77 131 -25 73 -17 229 13 279 12 19 25 42 29 50 12 26 48 58 56 50 4 -3 -1 -28 -13 -54z m-376 -95 c-10 -31 -22 -62 -27 -68 -14 -19 -11 -227 2 -231 6 -2 11 -14 11 -28 0 -33 27 -97 74 -178 70 -117 239 -256 350 -288 23 -6 46 -15 53 -20 6 -5 52 -14 103 -20 198 -24 358 27 483 155 25 26 48 43 52 38 3 -6 -6 -34 -21 -63 -38 -75 -85 -134 -143 -178 -18 -14 -45 -34 -59 -46 -15 -11 -49 -29 -77 -39 -27 -9 -61 -22 -74 -29 -32 -15 -363 -15 -382 0 -8 6 -27 14 -44 18 -34 8 -114 44 -132 60 -34 30 -43 36 -51 36 -15 0 -182 179 -182 195 0 7 -4 15 -9 17 -13 5 -59 101 -71 150 -19 74 -22 101 -22 173 0 133 23 204 94 302 21 29 38 55 38 58 0 3 10 19 22 36 30 40 35 20 12 -50z m-434 -104 c0 -8 -3 -17 -7 -21 -11 -11 -32 -77 -39 -124 -3 -23 -10 -45 -15 -48 -12 -7 -11 -221 1 -229 6 -3 10 -18 10 -32 0 -68 79 -273 117 -305 7 -6 13 -16 13 -23 0 -24 200 -223 272 -270 93 -62 163 -99 218 -115 25 -8 50 -17 55 -21 6 -4 35 -11 65 -14 30 -4 64 -11 75 -16 45 -22 324 0 390 30 11 5 41 16 66 25 46 17 141 73 147 88 2 5 8 8 13 8 12 0 69 51 69 62 0 13 26 38 39 38 25 0 3 -47 -73 -155 -57 -81 -125 -155 -143 -155 -6 0 -18 -9 -25 -19 -19 -27 -160 -102 -233 -124 -95 -29 -110 -31 -290 -30 -173 0 -229 4 -241 16 -4 4 -17 7 -29 7 -19 0 -54 14 -155 64 -89 43 -157 93 -247 179 -77 73 -183 211 -183 236 0 5 -4 11 -8 13 -17 6 -82 190 -92 256 -25 176 -4 373 51 462 5 8 15 26 21 40 7 14 17 31 23 37 5 7 35 44 65 82 55 70 70 82 70 58z m44 -1456 c52 -23 112 -88 125 -138 20 -72 13 -138 -28 -258 l-40 -115 35 0 c40 0 41 -7 18 -86 l-15 -54 -216 0 c-244 0 -279 6 -333 60 -42 42 -60 95 -60 176 1 171 95 352 213 407 84 40 221 44 301 8z m2210 -40 c3 -4 -75 -115 -174 -246 -157 -209 -181 -246 -196 -301 l-17 -64 -77 0 c-42 0 -79 2 -82 5 -3 3 1 33 10 66 15 60 14 62 -17 167 -17 59 -31 113 -31 120 0 10 20 12 82 10 l81 -3 11 -38 11 -38 100 148 c55 81 108 156 118 165 13 14 34 18 96 18 44 0 82 -4 85 -9z m-1062 -92 c21 -11 45 -30 53 -43 23 -35 29 -121 13 -196 l-14 -65 -172 -3 -172 -2 0 -24 c0 -43 23 -51 174 -56 86 -3 140 -9 139 -15 -1 -5 -7 -36 -13 -69 l-11 -58 -162 4 c-181 4 -219 15 -260 72 -49 70 -14 288 62 385 72 91 253 125 363 70z m-1677 9 c3 -7 -1 -38 -8 -68 l-12 -55 -78 -3 c-68 -3 -77 -1 -77 15 0 16 14 76 25 111 3 8 27 12 75 12 47 0 72 -4 75 -12z m915 -12 c0 -14 -14 -94 -30 -178 -23 -113 -28 -159 -21 -175 11 -24 56 -37 111 -31 l35 3 38 180 c52 243 42 227 124 223 53 -2 68 -6 67 -18 -2 -14 -70 -343 -80 -385 -3 -11 -10 -46 -16 -77 l-12 -58 -159 0 c-187 0 -216 9 -249 74 -18 35 -20 51 -14 121 7 80 54 309 69 333 5 7 32 12 73 12 61 0 64 -1 64 -24z m1346 -1 c28 -21 59 -101 43 -111 -5 -3 -79 -8 -164 -11 -147 -6 -156 -7 -160 -27 -7 -27 -75 -359 -75 -363 0 -2 -34 -3 -75 -3 -41 0 -75 4 -75 9 0 19 108 510 115 521 5 8 61 10 185 8 161 -3 181 -5 206 -23z m-2299 -177 c-9 -65 -78 -374 -93 -421 -21 -63 -66 -114 -112 -127 -20 -5 -67 -10 -104 -10 -64 0 -68 1 -68 23 0 46 27 112 46 115 57 9 65 14 84 55 11 23 36 116 55 207 20 91 38 171 40 178 3 8 29 12 81 12 l76 0 -5 -32z"/>
    <path d="M1464 1890 c-41 -16 -91 -88 -108 -155 -29 -115 -17 -183 35 -211 33 -17 184 -20 194 -3 16 25 65 228 65 267 0 54 -12 77 -50 97 -31 16 -102 19 -136 5z"/>
  </g>
</svg>