<?xml version="1.0" encoding="utf-8"?>
<svg width="200" height="200" viewBox="0 0 200 100" xmlns="http://www.w3.org/2000/svg">
  <path fill="#CF649A" d="M 113.58 57.363 C 109.206 57.387 105.419 58.439 102.241 60.002 C 101.068 57.681 99.894 55.652 99.7 54.137 C 99.479 52.377 99.21 51.303 99.479 49.2 C 99.748 47.098 100.97 44.117 100.97 43.873 C 100.945 43.653 100.702 42.578 98.184 42.553 C 95.667 42.528 93.491 43.042 93.248 43.701 C 93.003 44.362 92.514 45.877 92.197 47.441 C 91.756 49.738 87.162 57.876 84.547 62.153 C 83.691 60.492 82.958 59.025 82.812 57.852 C 82.591 56.092 82.322 55.016 82.591 52.915 C 82.86 50.814 84.082 47.832 84.082 47.588 C 84.058 47.368 83.814 46.292 81.297 46.268 C 78.779 46.243 76.603 46.756 76.359 47.416 C 76.116 48.077 75.847 49.64 75.309 51.155 C 74.796 52.671 68.685 66.259 67.097 69.803 C 66.291 71.611 65.582 73.053 65.069 74.031 C 64.556 75.007 65.044 74.104 64.996 74.202 C 64.556 75.033 64.312 75.497 64.312 75.497 L 64.312 75.522 C 63.969 76.133 63.602 76.719 63.431 76.719 C 63.309 76.719 63.064 75.082 63.481 72.833 C 64.384 68.116 66.584 60.761 66.559 60.492 C 66.559 60.369 66.975 59.073 65.142 58.414 C 63.358 57.755 62.723 58.854 62.577 58.854 C 62.429 58.854 62.307 59.245 62.307 59.245 C 62.307 59.245 64.286 50.96 58.519 50.96 C 54.902 50.96 49.917 54.895 47.448 58.488 C 45.884 59.343 42.56 61.151 39.042 63.082 C 37.697 63.816 36.304 64.597 34.984 65.306 L 34.715 65.012 C 27.726 57.558 14.797 52.279 15.335 42.26 C 15.53 38.618 16.801 29.014 40.165 17.381 C 59.301 7.849 74.624 10.465 77.288 16.281 C 81.076 24.59 69.101 40.036 49.207 42.26 C 41.632 43.115 37.648 40.182 36.646 39.083 C 35.595 37.934 35.449 37.885 35.057 38.105 C 34.422 38.447 34.813 39.473 35.057 40.085 C 35.644 41.625 38.088 44.362 42.243 45.73 C 45.884 46.927 54.78 47.588 65.534 43.433 C 77.582 38.765 86.991 25.812 84.229 14.985 C 81.418 3.964 63.138 0.347 45.859 6.48 C 35.57 10.147 24.427 15.866 16.41 23.368 C 6.879 32.264 5.363 40.036 5.999 43.262 C 8.223 54.773 24.084 62.275 30.438 67.823 C 30.12 67.994 29.828 68.165 29.559 68.311 C 26.381 69.875 14.284 76.206 11.254 82.902 C 7.833 90.478 11.792 95.929 14.43 96.661 C 22.594 98.934 30.952 94.853 35.473 88.131 C 39.969 81.411 39.432 72.686 37.355 68.703 L 37.282 68.556 L 39.774 67.09 C 41.387 66.135 42.975 65.257 44.369 64.5 C 43.587 66.626 43.024 69.143 42.731 72.809 C 42.389 77.11 44.149 82.682 46.47 84.882 C 47.498 85.835 48.719 85.858 49.476 85.858 C 52.165 85.858 53.387 83.635 54.731 80.97 C 56.393 77.72 57.86 73.957 57.86 73.957 C 57.86 73.957 56.027 84.148 61.037 84.148 C 62.869 84.148 64.702 81.778 65.534 80.556 L 65.534 80.58 C 65.534 80.58 65.582 80.506 65.68 80.336 C 65.875 80.042 65.973 79.871 65.973 79.871 L 65.973 79.822 C 66.706 78.551 68.344 75.643 70.787 70.828 C 73.94 64.621 76.97 56.85 76.97 56.85 C 76.97 56.85 77.264 58.756 78.168 61.884 C 78.706 63.742 79.879 65.769 80.783 67.75 C 80.05 68.776 79.611 69.363 79.611 69.363 L 79.635 69.387 C 79.048 70.169 78.389 71 77.704 71.831 C 75.211 74.812 72.23 78.21 71.839 79.187 C 71.374 80.336 71.472 81.191 72.376 81.875 C 73.036 82.364 74.21 82.462 75.455 82.364 C 77.704 82.218 79.267 81.656 80.05 81.314 C 81.272 80.873 82.665 80.214 84.009 79.236 C 86.453 77.428 87.944 74.862 87.797 71.44 C 87.724 69.558 87.113 67.7 86.355 65.942 C 86.575 65.624 86.796 65.306 87.016 64.964 C 90.877 59.319 93.858 53.111 93.858 53.111 C 93.858 53.111 94.152 55.016 95.056 58.145 C 95.521 59.733 96.449 61.468 97.279 63.18 C 93.663 66.135 91.39 69.558 90.608 71.807 C 89.166 75.961 90.29 77.843 92.416 78.283 C 93.369 78.479 94.738 78.039 95.764 77.598 C 97.035 77.183 98.575 76.475 99.992 75.423 C 102.437 73.616 104.783 71.098 104.66 67.7 C 104.586 66.135 104.171 64.597 103.61 63.131 C 106.689 61.86 110.672 61.127 115.731 61.737 C 126.606 63.008 128.757 69.803 128.342 72.636 C 127.926 75.473 125.654 77.037 124.896 77.525 C 124.139 77.99 123.894 78.161 123.968 78.503 C 124.065 79.016 124.407 78.991 125.067 78.895 C 125.971 78.748 130.786 76.572 130.981 71.343 C 131.275 64.621 124.896 57.29 113.58 57.363 Z M 29.705 85.639 C 26.113 89.574 21.054 91.065 18.903 89.794 C 16.581 88.449 17.485 82.658 21.91 78.479 C 24.598 75.937 28.093 73.59 30.389 72.148 C 30.904 71.831 31.685 71.367 32.613 70.805 C 32.76 70.707 32.858 70.658 32.858 70.658 C 33.029 70.56 33.225 70.438 33.421 70.316 C 35.057 76.278 33.494 81.508 29.705 85.639 Z M 55.977 67.774 C 54.731 70.828 52.091 78.674 50.503 78.234 C 49.135 77.867 48.304 71.929 50.235 66.063 C 51.212 63.106 53.289 59.587 54.511 58.219 C 56.491 56.019 58.641 55.286 59.179 56.19 C 59.815 57.363 56.76 65.868 55.977 67.774 Z M 77.656 78.136 C 77.118 78.405 76.629 78.6 76.409 78.454 C 76.237 78.357 76.629 77.99 76.629 77.99 C 76.629 77.99 79.341 75.082 80.416 73.736 C 81.028 72.955 81.761 72.051 82.543 71.024 L 82.543 71.317 C 82.543 74.837 79.171 77.183 77.656 78.136 Z M 94.371 74.324 C 93.981 74.031 94.029 73.126 95.349 70.291 C 95.861 69.167 97.035 67.285 99.064 65.501 C 99.308 66.234 99.454 66.944 99.43 67.603 C 99.406 72.002 96.278 73.64 94.371 74.324 Z"/>
</svg>