<?xml version="1.0" encoding="utf-8"?>
<svg width="200" height="200" viewBox="0 0 200 200" xmlns="http://www.w3.org/2000/svg">
  <path fill="#CF649A" d="M 168.573 104.983 C 161.803 105.021 155.943 106.649 151.024 109.067 C 149.208 105.475 147.392 102.335 147.091 99.99 C 146.749 97.267 146.332 95.605 146.749 92.349 C 147.165 89.095 149.057 84.483 149.057 84.104 C 149.017 83.764 148.642 82.101 144.744 82.061 C 140.849 82.023 137.481 82.817 137.105 83.838 C 136.726 84.861 135.969 87.206 135.479 89.626 C 134.796 93.182 127.686 105.778 123.638 112.397 C 122.313 109.826 121.179 107.555 120.953 105.74 C 120.61 103.015 120.194 101.351 120.61 98.099 C 121.027 94.848 122.918 90.232 122.918 89.854 C 122.881 89.513 122.504 87.848 118.609 87.811 C 114.711 87.772 111.342 88.567 110.966 89.588 C 110.589 90.612 110.173 93.03 109.341 95.375 C 108.547 97.72 99.088 118.751 96.631 124.237 C 95.384 127.036 94.286 129.266 93.492 130.781 C 92.698 132.291 93.453 130.894 93.378 131.045 C 92.698 132.332 92.321 133.05 92.321 133.05 L 92.321 133.088 C 91.789 134.034 91.221 134.94 90.956 134.94 C 90.769 134.94 90.388 132.407 91.034 128.926 C 92.432 121.626 95.837 110.242 95.798 109.826 C 95.798 109.635 96.442 107.629 93.605 106.61 C 90.844 105.589 89.861 107.291 89.635 107.291 C 89.405 107.291 89.218 107.896 89.218 107.896 C 89.218 107.896 92.28 95.073 83.354 95.073 C 77.756 95.073 70.041 101.163 66.219 106.724 C 63.798 108.048 58.655 110.846 53.209 113.834 C 51.128 114.971 48.972 116.178 46.928 117.277 L 46.512 116.822 C 35.696 105.285 15.685 97.115 16.518 81.608 C 16.82 75.972 18.787 61.106 54.948 43.102 C 84.565 28.349 108.28 32.398 112.403 41.399 C 118.266 54.26 99.732 78.165 68.942 81.608 C 57.219 82.932 51.052 78.391 49.501 76.691 C 47.875 74.912 47.648 74.837 47.043 75.177 C 46.06 75.705 46.664 77.295 47.043 78.242 C 47.951 80.625 51.733 84.861 58.163 86.979 C 63.798 88.831 77.567 89.854 94.211 83.423 C 112.859 76.198 127.421 56.151 123.147 39.394 C 118.795 22.336 90.503 16.738 63.761 26.231 C 47.836 31.906 30.59 40.757 18.182 52.369 C 3.431 66.137 1.083 78.165 2.067 83.159 C 5.51 100.975 30.058 112.586 39.893 121.172 C 39.4 121.437 38.949 121.701 38.533 121.928 C 33.613 124.348 14.891 134.146 10.202 144.511 C 4.908 156.235 11.034 164.672 15.117 165.806 C 27.752 169.323 40.688 163.007 47.685 152.603 C 54.644 142.203 53.813 128.699 50.599 122.534 L 50.485 122.306 L 54.342 120.037 C 56.838 118.559 59.297 117.201 61.454 116.03 C 60.244 119.319 59.373 123.215 58.919 128.889 C 58.39 135.546 61.115 144.17 64.706 147.575 C 66.297 149.049 68.187 149.085 69.358 149.085 C 73.52 149.085 75.411 145.645 77.491 141.521 C 80.064 136.49 82.334 130.665 82.334 130.665 C 82.334 130.665 79.498 146.439 87.251 146.439 C 90.087 146.439 92.924 142.771 94.211 140.879 L 94.211 140.916 C 94.211 140.916 94.286 140.802 94.438 140.539 C 94.74 140.084 94.892 139.819 94.892 139.819 L 94.892 139.743 C 96.026 137.776 98.561 133.276 102.342 125.823 C 107.223 116.217 111.912 104.19 111.912 104.19 C 111.912 104.19 112.366 107.139 113.766 111.981 C 114.599 114.856 116.414 117.992 117.813 121.059 C 116.678 122.648 115.999 123.555 115.999 123.555 L 116.036 123.593 C 115.127 124.804 114.107 126.09 113.048 127.375 C 109.189 131.989 104.575 137.248 103.97 138.76 C 103.251 140.539 103.402 141.862 104.801 142.92 C 105.822 143.678 107.64 143.829 109.567 143.678 C 113.048 143.451 115.466 142.581 116.678 142.052 C 118.57 141.37 120.726 140.349 122.806 138.836 C 126.589 136.038 128.896 132.067 128.669 126.77 C 128.555 123.857 127.61 120.981 126.437 118.262 C 126.777 117.769 127.12 117.277 127.459 116.747 C 133.435 108.011 138.05 98.403 138.05 98.403 C 138.05 98.403 138.503 101.351 139.902 106.194 C 140.623 108.65 142.059 111.336 143.344 113.986 C 137.747 118.559 134.229 123.857 133.019 127.338 C 130.787 133.767 132.526 136.68 135.817 137.361 C 137.293 137.665 139.411 136.984 141 136.301 C 142.966 135.659 145.349 134.563 147.544 132.935 C 151.327 130.138 154.957 126.242 154.768 120.981 C 154.653 118.559 154.011 116.178 153.142 113.91 C 157.908 111.943 164.072 110.809 171.903 111.752 C 188.733 113.721 192.063 124.237 191.421 128.621 C 190.777 133.013 187.26 135.433 186.087 136.188 C 184.916 136.908 184.537 137.173 184.651 137.702 C 184.801 138.496 185.33 138.456 186.351 138.309 C 187.75 138.081 195.203 134.713 195.505 126.621 C 195.961 116.217 186.087 104.87 168.573 104.983 Z M 38.759 148.747 C 33.198 154.836 25.369 157.144 22.041 155.177 C 18.446 153.095 19.845 144.133 26.694 137.665 C 30.854 133.73 36.263 130.098 39.816 127.867 C 40.614 127.375 41.823 126.658 43.259 125.787 C 43.487 125.636 43.639 125.56 43.639 125.56 C 43.904 125.408 44.206 125.22 44.51 125.03 C 47.043 134.259 44.623 142.353 38.759 148.747 Z M 79.42 121.097 C 77.491 125.823 73.406 137.967 70.947 137.285 C 68.831 136.717 67.544 127.526 70.532 118.448 C 72.045 113.873 75.259 108.425 77.15 106.308 C 80.215 102.903 83.543 101.768 84.377 103.167 C 85.361 104.983 80.631 118.147 79.42 121.097 Z M 112.973 137.135 C 112.14 137.551 111.383 137.852 111.043 137.625 C 110.778 137.477 111.383 136.908 111.383 136.908 C 111.383 136.908 115.582 132.407 117.245 130.324 C 118.191 129.115 119.326 127.716 120.536 126.127 L 120.536 126.58 C 120.536 132.028 115.318 135.659 112.973 137.135 Z M 138.844 131.233 C 138.239 130.781 138.314 129.38 140.357 124.992 C 141.148 123.253 142.966 120.34 146.106 117.579 C 146.484 118.712 146.71 119.812 146.673 120.833 C 146.636 127.641 141.794 130.175 138.844 131.233 Z"/>
</svg>